<mxfile host="app.diagrams.net" agent="Mozilla/5.0 (Windows NT 10.0; Win64; x64) AppleWebKit/537.36 (KHTML, like Gecko) Chrome/127.0.0.0 Safari/537.36" version="24.7.6">
  <diagram name="Page-1" id="rPLcQxKnwmKYAxCcPPqL">
    <mxGraphModel dx="1477" dy="-463" grid="0" gridSize="10" guides="1" tooltips="1" connect="1" arrows="1" fold="1" page="1" pageScale="1" pageWidth="850" pageHeight="1100" math="0" shadow="0">
      <root>
        <mxCell id="0" />
        <mxCell id="1" parent="0" />
        <mxCell id="7WoqqL8MU9E2NCYf5LLM-30" value="" style="group" parent="1" vertex="1" connectable="0">
          <mxGeometry x="20" y="1150" width="270" height="270" as="geometry" />
        </mxCell>
        <mxCell id="7WoqqL8MU9E2NCYf5LLM-28" value="" style="ellipse;whiteSpace=wrap;html=1;aspect=fixed;fillColor=#f8cecc;strokeColor=#b85450;" parent="7WoqqL8MU9E2NCYf5LLM-30" vertex="1">
          <mxGeometry width="270" height="270" as="geometry" />
        </mxCell>
        <mxCell id="7WoqqL8MU9E2NCYf5LLM-26" value="" style="ellipse;whiteSpace=wrap;html=1;aspect=fixed;fillColor=#d5e8d4;strokeColor=#82b366;" parent="7WoqqL8MU9E2NCYf5LLM-30" vertex="1">
          <mxGeometry x="70" y="60" width="180" height="180" as="geometry" />
        </mxCell>
        <mxCell id="7WoqqL8MU9E2NCYf5LLM-25" value="&lt;b&gt;Cluster IP&lt;/b&gt;" style="ellipse;whiteSpace=wrap;html=1;aspect=fixed;fillColor=#dae8fc;strokeColor=#6c8ebf;" parent="7WoqqL8MU9E2NCYf5LLM-30" vertex="1">
          <mxGeometry x="130" y="120" width="80" height="80" as="geometry" />
        </mxCell>
        <mxCell id="7WoqqL8MU9E2NCYf5LLM-27" value="&lt;b&gt;Node Port&lt;/b&gt;" style="text;html=1;align=center;verticalAlign=middle;resizable=0;points=[];autosize=1;strokeColor=none;fillColor=none;" parent="7WoqqL8MU9E2NCYf5LLM-30" vertex="1">
          <mxGeometry x="110" y="80" width="80" height="30" as="geometry" />
        </mxCell>
        <mxCell id="7WoqqL8MU9E2NCYf5LLM-29" value="&lt;b&gt;Load Balancer&lt;/b&gt;" style="text;html=1;align=center;verticalAlign=middle;resizable=0;points=[];autosize=1;strokeColor=none;fillColor=none;" parent="7WoqqL8MU9E2NCYf5LLM-30" vertex="1">
          <mxGeometry x="70" y="20" width="110" height="30" as="geometry" />
        </mxCell>
        <mxCell id="gVt-e7USz2jDWSjKCuRl-6" value="" style="group" parent="1" vertex="1" connectable="0">
          <mxGeometry x="565" y="1181" width="241" height="233" as="geometry" />
        </mxCell>
        <mxCell id="gVt-e7USz2jDWSjKCuRl-4" value="" style="ellipse;whiteSpace=wrap;html=1;aspect=fixed;fillColor=#e1d5e7;strokeColor=#9673a6;" parent="gVt-e7USz2jDWSjKCuRl-6" vertex="1">
          <mxGeometry x="-3" y="-11" width="244" height="244" as="geometry" />
        </mxCell>
        <mxCell id="gVt-e7USz2jDWSjKCuRl-2" value="" style="ellipse;whiteSpace=wrap;html=1;aspect=fixed;fillColor=#d5e8d4;strokeColor=#82b366;" parent="gVt-e7USz2jDWSjKCuRl-6" vertex="1">
          <mxGeometry x="49" y="30" width="160" height="160" as="geometry" />
        </mxCell>
        <mxCell id="gVt-e7USz2jDWSjKCuRl-1" value="&lt;b&gt;Pod&lt;/b&gt;" style="ellipse;whiteSpace=wrap;html=1;aspect=fixed;fillColor=#dae8fc;strokeColor=#6c8ebf;" parent="gVt-e7USz2jDWSjKCuRl-6" vertex="1">
          <mxGeometry x="90" y="80" width="80" height="80" as="geometry" />
        </mxCell>
        <mxCell id="gVt-e7USz2jDWSjKCuRl-3" value="&lt;b&gt;ReplicaSet&lt;/b&gt;" style="text;html=1;align=center;verticalAlign=middle;resizable=0;points=[];autosize=1;strokeColor=none;fillColor=none;" parent="gVt-e7USz2jDWSjKCuRl-6" vertex="1">
          <mxGeometry x="89" y="40" width="80" height="30" as="geometry" />
        </mxCell>
        <mxCell id="gVt-e7USz2jDWSjKCuRl-5" value="&lt;b&gt;deployment&lt;/b&gt;" style="text;html=1;align=center;verticalAlign=middle;resizable=0;points=[];autosize=1;strokeColor=none;fillColor=none;" parent="gVt-e7USz2jDWSjKCuRl-6" vertex="1">
          <mxGeometry x="20" y="20" width="90" height="30" as="geometry" />
        </mxCell>
        <mxCell id="q1VbxSBvF2cE59NUzl35-35" value="" style="group" vertex="1" connectable="0" parent="1">
          <mxGeometry x="148.00315914489312" y="1580" width="560.0925369345182" height="306.49772660228655" as="geometry" />
        </mxCell>
        <mxCell id="q1VbxSBvF2cE59NUzl35-2" value="&lt;b&gt;&lt;font style=&quot;font-size: 12px;&quot;&gt;replicaset&lt;/font&gt;&lt;/b&gt;" style="rhombus;whiteSpace=wrap;html=1;strokeWidth=2;fillColor=#e1d5e7;strokeColor=#9673a6;" vertex="1" parent="q1VbxSBvF2cE59NUzl35-35">
          <mxGeometry x="90.88865795724465" y="137.6893732970027" width="78.65617577197148" height="79.7275204359673" as="geometry" />
        </mxCell>
        <mxCell id="q1VbxSBvF2cE59NUzl35-34" value="" style="group" vertex="1" connectable="0" parent="q1VbxSBvF2cE59NUzl35-35">
          <mxGeometry y="176.0544959128065" width="256.345694655514" height="130.44323068948015" as="geometry" />
        </mxCell>
        <mxCell id="q1VbxSBvF2cE59NUzl35-4" value="&lt;font style=&quot;font-size: 18px;&quot;&gt;&lt;b&gt;Pod&lt;/b&gt;&lt;/font&gt;" style="ellipse;whiteSpace=wrap;html=1;aspect=fixed;strokeWidth=3;fillColor=#f8cecc;strokeColor=#b85450;" vertex="1" parent="q1VbxSBvF2cE59NUzl35-34">
          <mxGeometry y="76.1307901907357" width="54.312440498744444" height="54.312440498744444" as="geometry" />
        </mxCell>
        <mxCell id="q1VbxSBvF2cE59NUzl35-5" value="&lt;font style=&quot;font-size: 18px;&quot;&gt;&lt;b&gt;Pod&lt;/b&gt;&lt;/font&gt;" style="ellipse;whiteSpace=wrap;html=1;aspect=fixed;strokeWidth=3;fillColor=#f8cecc;strokeColor=#b85450;" vertex="1" parent="q1VbxSBvF2cE59NUzl35-34">
          <mxGeometry x="102.85807600950118" y="76.1307901907357" width="54.312440498744444" height="54.312440498744444" as="geometry" />
        </mxCell>
        <mxCell id="q1VbxSBvF2cE59NUzl35-6" value="&lt;font style=&quot;font-size: 18px;&quot;&gt;&lt;b&gt;Pod&lt;/b&gt;&lt;/font&gt;" style="ellipse;whiteSpace=wrap;html=1;aspect=fixed;strokeWidth=3;fillColor=#f8cecc;strokeColor=#b85450;" vertex="1" parent="q1VbxSBvF2cE59NUzl35-34">
          <mxGeometry x="202.03325415676957" y="76.1307901907357" width="54.312440498744444" height="54.312440498744444" as="geometry" />
        </mxCell>
        <mxCell id="q1VbxSBvF2cE59NUzl35-7" value="" style="endArrow=classic;html=1;rounded=0;strokeWidth=3;" edge="1" parent="q1VbxSBvF2cE59NUzl35-34">
          <mxGeometry width="50" height="50" relative="1" as="geometry">
            <mxPoint x="26.306413301662705" y="0.5994550408719377" as="sourcePoint" />
            <mxPoint x="26.306413301662705" y="74.33242506811989" as="targetPoint" />
          </mxGeometry>
        </mxCell>
        <mxCell id="q1VbxSBvF2cE59NUzl35-8" value="" style="endArrow=classic;html=1;rounded=0;strokeWidth=3;" edge="1" parent="q1VbxSBvF2cE59NUzl35-34">
          <mxGeometry width="50" height="50" relative="1" as="geometry">
            <mxPoint x="229.39192399049878" as="sourcePoint" />
            <mxPoint x="229.39192399049878" y="72.53405994550408" as="targetPoint" />
            <Array as="points">
              <mxPoint x="229.39192399049878" y="26.37602179836513" />
              <mxPoint x="229.39192399049878" y="57.54768392370572" />
            </Array>
          </mxGeometry>
        </mxCell>
        <mxCell id="q1VbxSBvF2cE59NUzl35-9" value="" style="endArrow=classic;html=1;rounded=0;strokeWidth=3;exitX=0.5;exitY=1;exitDx=0;exitDy=0;" edge="1" parent="q1VbxSBvF2cE59NUzl35-34" source="q1VbxSBvF2cE59NUzl35-2">
          <mxGeometry width="50" height="50" relative="1" as="geometry">
            <mxPoint x="128.90142517814724" y="45.55858310626702" as="sourcePoint" />
            <mxPoint x="130.479809976247" y="71.93460490463215" as="targetPoint" />
          </mxGeometry>
        </mxCell>
        <mxCell id="q1VbxSBvF2cE59NUzl35-12" value="" style="endArrow=none;html=1;rounded=0;strokeWidth=3;" edge="1" parent="q1VbxSBvF2cE59NUzl35-34">
          <mxGeometry width="50" height="50" relative="1" as="geometry">
            <mxPoint x="169.54483372921612" y="1.1989100817438683" as="sourcePoint" />
            <mxPoint x="228.8657957244655" y="1.1989100817438683" as="targetPoint" />
          </mxGeometry>
        </mxCell>
        <mxCell id="q1VbxSBvF2cE59NUzl35-13" value="" style="endArrow=none;html=1;rounded=0;endSize=6;strokeWidth=3;entryX=0;entryY=0.5;entryDx=0;entryDy=0;" edge="1" parent="q1VbxSBvF2cE59NUzl35-34" target="q1VbxSBvF2cE59NUzl35-2">
          <mxGeometry width="50" height="50" relative="1" as="geometry">
            <mxPoint x="25.78028503562945" y="1.7983651226157988" as="sourcePoint" />
            <mxPoint x="87.86342042755342" y="2.3978201634877365" as="targetPoint" />
          </mxGeometry>
        </mxCell>
        <mxCell id="q1VbxSBvF2cE59NUzl35-1" value="&lt;b&gt;&lt;font style=&quot;font-size: 10px;&quot;&gt;deployment&lt;/font&gt;&lt;/b&gt;" style="ellipse;whiteSpace=wrap;html=1;aspect=fixed;fillColor=#dae8fc;strokeColor=#6c8ebf;strokeWidth=2;" vertex="1" parent="q1VbxSBvF2cE59NUzl35-35">
          <mxGeometry x="93.8268408551069" width="76.72" height="76.72" as="geometry" />
        </mxCell>
        <mxCell id="q1VbxSBvF2cE59NUzl35-19" value="&lt;b&gt;&lt;font style=&quot;font-size: 11px;&quot;&gt;replicaset&lt;/font&gt;&lt;/b&gt;" style="rhombus;whiteSpace=wrap;html=1;strokeWidth=2;fillColor=#e1d5e7;strokeColor=#9673a6;container=0;" vertex="1" parent="q1VbxSBvF2cE59NUzl35-35">
          <mxGeometry x="411.72856830049653" y="151.47367847411442" width="70.53034810714064" height="73.47438157824436" as="geometry" />
        </mxCell>
        <mxCell id="q1VbxSBvF2cE59NUzl35-20" value="&lt;font style=&quot;font-size: 18px;&quot;&gt;&lt;b&gt;Pod&lt;/b&gt;&lt;/font&gt;" style="ellipse;whiteSpace=wrap;html=1;aspect=fixed;strokeWidth=3;fillColor=#f8cecc;strokeColor=#b85450;container=0;" vertex="1" parent="q1VbxSBvF2cE59NUzl35-35">
          <mxGeometry x="330.2294536817102" y="256.98951968798406" width="48.701520221757846" height="48.701520221757846" as="geometry" />
        </mxCell>
        <mxCell id="q1VbxSBvF2cE59NUzl35-21" value="&lt;font style=&quot;font-size: 18px;&quot;&gt;&lt;b&gt;Pod&lt;/b&gt;&lt;/font&gt;" style="ellipse;whiteSpace=wrap;html=1;aspect=fixed;strokeWidth=3;fillColor=#f8cecc;strokeColor=#b85450;container=0;" vertex="1" parent="q1VbxSBvF2cE59NUzl35-35">
          <mxGeometry x="422.4614473602788" y="256.98951968798406" width="48.701520221757846" height="48.701520221757846" as="geometry" />
        </mxCell>
        <mxCell id="q1VbxSBvF2cE59NUzl35-22" value="&lt;font style=&quot;font-size: 18px;&quot;&gt;&lt;b&gt;Pod&lt;/b&gt;&lt;/font&gt;" style="ellipse;whiteSpace=wrap;html=1;aspect=fixed;strokeWidth=3;fillColor=#f8cecc;strokeColor=#b85450;container=0;" vertex="1" parent="q1VbxSBvF2cE59NUzl35-35">
          <mxGeometry x="511.3910167127604" y="256.98951968798406" width="48.701520221757846" height="48.701520221757846" as="geometry" />
        </mxCell>
        <mxCell id="q1VbxSBvF2cE59NUzl35-23" value="" style="endArrow=classic;html=1;rounded=0;strokeWidth=3;" edge="1" parent="q1VbxSBvF2cE59NUzl35-35">
          <mxGeometry width="50" height="50" relative="1" as="geometry">
            <mxPoint x="353.81819886804493" y="187.38221082438417" as="sourcePoint" />
            <mxPoint x="353.81819886804493" y="255.33220281027934" as="targetPoint" />
          </mxGeometry>
        </mxCell>
        <mxCell id="q1VbxSBvF2cE59NUzl35-24" value="" style="endArrow=classic;html=1;rounded=0;strokeWidth=3;" edge="1" parent="q1VbxSBvF2cE59NUzl35-35">
          <mxGeometry width="50" height="50" relative="1" as="geometry">
            <mxPoint x="535.9233117065485" y="186.82977186514927" as="sourcePoint" />
            <mxPoint x="535.9233117065485" y="253.67488593257463" as="targetPoint" />
            <Array as="points">
              <mxPoint x="535.9233117065485" y="211.13708607148578" />
              <mxPoint x="535.9233117065485" y="239.86391195170154" />
            </Array>
          </mxGeometry>
        </mxCell>
        <mxCell id="q1VbxSBvF2cE59NUzl35-25" value="" style="endArrow=classic;html=1;rounded=0;strokeWidth=3;exitX=0.5;exitY=1;exitDx=0;exitDy=0;" edge="1" parent="q1VbxSBvF2cE59NUzl35-35" source="q1VbxSBvF2cE59NUzl35-19">
          <mxGeometry width="50" height="50" relative="1" as="geometry">
            <mxPoint x="445.81430509475007" y="228.8151327670032" as="sourcePoint" />
            <mxPoint x="447.2296298059301" y="253.12244697333972" as="targetPoint" />
          </mxGeometry>
        </mxCell>
        <mxCell id="q1VbxSBvF2cE59NUzl35-26" value="" style="endArrow=none;html=1;rounded=0;strokeWidth=3;" edge="1" parent="q1VbxSBvF2cE59NUzl35-35">
          <mxGeometry width="50" height="50" relative="1" as="geometry">
            <mxPoint x="482.25891640763706" y="187.93464978361908" as="sourcePoint" />
            <mxPoint x="535.4515368028217" y="187.93464978361908" as="targetPoint" />
          </mxGeometry>
        </mxCell>
        <mxCell id="q1VbxSBvF2cE59NUzl35-27" value="" style="endArrow=none;html=1;rounded=0;endSize=6;strokeWidth=3;entryX=0;entryY=0.5;entryDx=0;entryDy=0;" edge="1" parent="q1VbxSBvF2cE59NUzl35-35" target="q1VbxSBvF2cE59NUzl35-19">
          <mxGeometry width="50" height="50" relative="1" as="geometry">
            <mxPoint x="353.34642396431815" y="188.48708874285398" as="sourcePoint" />
            <mxPoint x="409.015862604068" y="189.0395277020889" as="targetPoint" />
          </mxGeometry>
        </mxCell>
        <mxCell id="q1VbxSBvF2cE59NUzl35-28" value="" style="endArrow=classic;html=1;rounded=0;strokeWidth=3;" edge="1" parent="q1VbxSBvF2cE59NUzl35-35">
          <mxGeometry width="50" height="50" relative="1" as="geometry">
            <mxPoint x="131.4768408551069" y="80.69000000000005" as="sourcePoint" />
            <mxPoint x="131.4768408551069" y="137.69000000000005" as="targetPoint" />
          </mxGeometry>
        </mxCell>
        <mxCell id="q1VbxSBvF2cE59NUzl35-30" value="" style="endArrow=none;html=1;rounded=0;strokeWidth=3;exitX=1;exitY=0.5;exitDx=0;exitDy=0;" edge="1" parent="q1VbxSBvF2cE59NUzl35-35" source="q1VbxSBvF2cE59NUzl35-1">
          <mxGeometry width="50" height="50" relative="1" as="geometry">
            <mxPoint x="288.2268408551069" y="87" as="sourcePoint" />
            <mxPoint x="445.9968408551069" y="38" as="targetPoint" />
          </mxGeometry>
        </mxCell>
        <mxCell id="q1VbxSBvF2cE59NUzl35-31" value="" style="endArrow=classic;html=1;rounded=0;strokeWidth=3;" edge="1" parent="q1VbxSBvF2cE59NUzl35-35">
          <mxGeometry width="50" height="50" relative="1" as="geometry">
            <mxPoint x="445.9968408551069" y="38" as="sourcePoint" />
            <mxPoint x="446.2268408551069" y="143" as="targetPoint" />
          </mxGeometry>
        </mxCell>
      </root>
    </mxGraphModel>
  </diagram>
</mxfile>
